<svg width="9" height="18" viewBox="0 0 9 18" fill="none" xmlns="http://www.w3.org/2000/svg">
<path d="M2.15702 3.48603C2.15702 3.93963 2.15702 5.96427 2.15702 5.96427H0.40625V8.99468H2.15702V18H5.75348V8.99494H8.16687C8.16687 8.99494 8.3929 7.54188 8.50246 5.9531C8.18834 5.9531 5.76708 5.9531 5.76708 5.9531C5.76708 5.9531 5.76708 4.1901 5.76708 3.88109C5.76708 3.5714 6.1592 3.15483 6.54677 3.15483C6.9336 3.15483 7.75005 3.15483 8.50625 3.15483C8.50625 2.74223 8.50625 1.31663 8.50625 1.0825e-08C7.49675 1.0825e-08 6.34826 1.0825e-08 5.84202 1.0825e-08C2.06812 -0.000209237 2.15702 3.03321 2.15702 3.48603Z" fill="#F5F5F5"/>
</svg>
