<svg width="19" height="18" viewBox="0 0 19 18" fill="none" xmlns="http://www.w3.org/2000/svg">
<path d="M13.5384 0H5.4731C2.73417 0 0.505859 2.22841 0.505859 4.96735V13.0327C0.505859 15.7717 2.73417 18 5.4731 18H13.5384C16.2776 18 18.5059 15.7716 18.5059 13.0327V4.96735C18.506 2.22841 16.2776 0 13.5384 0ZM16.9089 13.0327C16.9089 14.8911 15.3969 16.403 13.5385 16.403H5.4731C3.61478 16.4031 2.10291 14.8911 2.10291 13.0327V4.96735C2.10291 3.10903 3.61478 1.59705 5.4731 1.59705H13.5384C15.3968 1.59705 16.9088 3.10903 16.9088 4.96735V13.0327H16.9089Z" fill="#F5F5F5"/>
<path d="M9.50533 4.3623C6.94782 4.3623 4.86719 6.44294 4.86719 9.00045C4.86719 11.5579 6.94782 13.6384 9.50533 13.6384C12.0628 13.6384 14.1435 11.5579 14.1435 9.00045C14.1435 6.44294 12.0628 4.3623 9.50533 4.3623ZM9.50533 12.0412C7.82854 12.0412 6.46423 10.6771 6.46423 9.00034C6.46423 7.32344 7.82843 5.95925 9.50533 5.95925C11.1822 5.95925 12.5464 7.32344 12.5464 9.00034C12.5464 10.6771 11.1821 12.0412 9.50533 12.0412Z" fill="#F5F5F5"/>
<path d="M14.3382 3.00879C14.0305 3.00879 13.7282 3.13336 13.5109 3.35162C13.2925 3.56882 13.167 3.87119 13.167 4.17996C13.167 4.48776 13.2926 4.79003 13.5109 5.00829C13.7281 5.22549 14.0305 5.35112 14.3382 5.35112C14.6469 5.35112 14.9482 5.22549 15.1665 5.00829C15.3848 4.79003 15.5093 4.48765 15.5093 4.17996C15.5093 3.87119 15.3848 3.56882 15.1665 3.35162C14.9493 3.13336 14.6469 3.00879 14.3382 3.00879Z" fill="#F5F5F5"/>
</svg>
