<svg width="150" height="47" viewBox="0 0 150 47" fill="none" xmlns="http://www.w3.org/2000/svg">
<path d="M103.784 25.1965C104.048 26.3415 104.198 27.5564 104.198 28.8627C104.198 32.4967 103.193 35.5018 101.183 37.8779C99.0807 40.3884 96.2262 41.6463 92.6083 41.6463C88.9904 41.6463 86.1305 40.3937 84.0339 37.8779C82.5018 36.0663 81.5557 33.8837 81.1955 31.341C79.5398 31.5936 77.8733 31.7764 76.2014 31.8355C76.6852 35.4964 78.0829 38.6144 80.416 41.1732C83.5393 44.5385 87.6088 46.2211 92.6083 46.2211C97.6077 46.2211 101.672 44.5385 104.8 41.1732C107.746 37.9424 109.219 33.8407 109.219 28.8627C109.219 26.4275 108.859 24.2073 108.15 22.1914C106.704 23.2021 105.306 24.2987 103.784 25.1965Z" fill="white"/>
<path d="M76.7927 28.8732C76.7927 28.7442 76.7282 16.1057 89.1677 12.7674C89.3989 12.6867 96.7368 10.2999 103.903 16.8422L102.236 18.67C96.1347 13.1007 89.9472 15.1112 89.8827 15.1327C79.2118 17.998 79.2602 28.728 79.2656 28.8355L76.7927 28.8732Z" fill="url(#paint0_linear_22_453)"/>
<path d="M103.064 21.3097C104.665 21.3097 105.962 20.0125 105.962 18.4122C105.962 16.8119 104.665 15.5146 103.064 15.5146C101.464 15.5146 100.167 16.8119 100.167 18.4122C100.167 20.0125 101.464 21.3097 103.064 21.3097Z" fill="#87F2E7"/>
<path d="M0.45166 12.918H5.27372V45.2156H0.45166V12.918Z" fill="white"/>
<path d="M24.8897 45.2156H20.0676V0H24.8897V45.2156Z" fill="white"/>
<path d="M44.5113 45.2156H39.6892V0H44.5113V45.2156Z" fill="white"/>
<path d="M59.3054 12.918H64.1275V45.2156H59.3054V12.918Z" fill="white"/>
<path d="M126.454 12.9184V17.9555C127.61 16.4073 129.029 15.0902 130.701 14.0151C132.373 12.9399 134.281 12.4023 136.426 12.4023C138.571 12.4023 140.415 12.7034 141.958 13.3055C143.501 13.9076 144.85 14.8107 146.011 16.0202C148.672 18.649 150 22.1163 150 26.417V45.2106H145.178V26.546C145.178 23.5732 144.339 21.2078 142.667 19.4392C140.996 17.676 138.829 16.789 136.168 16.789C133.464 16.789 131.174 17.6921 129.287 19.5037C127.4 21.353 126.46 23.7237 126.46 26.6105V45.2106H121.637V12.9184H126.454Z" fill="white"/>
<path d="M2.89754 5.79507C4.4978 5.79507 5.79508 4.4978 5.79508 2.89754C5.79508 1.29727 4.4978 0 2.89754 0C1.29727 0 0 1.29727 0 2.89754C0 4.4978 1.29727 5.79507 2.89754 5.79507Z" fill="white"/>
<path d="M61.7137 5.79507C63.314 5.79507 64.6112 4.4978 64.6112 2.89754C64.6112 1.29727 63.314 0 61.7137 0C60.1134 0 58.8162 1.29727 58.8162 2.89754C58.8162 4.4978 60.1134 5.79507 61.7137 5.79507Z" fill="white"/>
<defs>
<linearGradient id="paint0_linear_22_453" x1="99.9885" y1="26.2519" x2="79.9081" y2="18.0079" gradientUnits="userSpaceOnUse">
<stop stop-color="#1DF2DC"/>
<stop offset="1" stop-color="#0045B5"/>
</linearGradient>
</defs>
</svg>
