<svg width="18" height="15" viewBox="0 0 18 15" fill="none" xmlns="http://www.w3.org/2000/svg">
<path d="M17.4066 2.24559C16.7593 2.52953 16.0695 2.71774 15.3504 2.80912C16.0902 2.36743 16.6548 1.67334 16.9203 0.83674C16.2306 1.24797 15.469 1.53844 14.6574 1.70054C14.0025 1.00319 13.0691 0.571289 12.0508 0.571289C10.0752 0.571289 8.48463 2.17487 8.48463 4.14073C8.48463 4.42359 8.50856 4.69556 8.56731 4.95449C5.60057 4.80979 2.97544 3.38789 1.21193 1.22186C0.904055 1.75603 0.723462 2.36743 0.723462 3.02562C0.723462 4.26149 1.35989 5.35701 2.30855 5.99127C1.73522 5.98039 1.17277 5.81394 0.696264 5.55175C0.696264 5.56263 0.696264 5.57677 0.696264 5.59092C0.696264 7.32505 1.93322 8.76544 3.5553 9.09726C3.26482 9.17667 2.94824 9.21475 2.61969 9.21475C2.39123 9.21475 2.16059 9.2017 1.9441 9.15383C2.40646 10.567 3.71848 11.606 5.27855 11.6397C4.06444 12.5895 2.52287 13.1617 0.854011 13.1617C0.561363 13.1617 0.280681 13.1486 0 13.1127C1.58074 14.1321 3.45412 14.7141 5.47437 14.7141C12.041 14.7141 15.6311 9.27459 15.6311 4.55957C15.6311 4.40183 15.6257 4.24952 15.6181 4.0983C16.3263 3.59568 16.9214 2.96796 17.4066 2.24559Z" fill="#F5F5F5"/>
</svg>
